<svg id="Layer_1" data-name="Layer 1" xmlns="http://www.w3.org/2000/svg" viewBox="0 0 82.26 92.47"><defs><style>.cls-1{fill:#4fd5d6;}.cls-1,.cls-2,.cls-3,.cls-4,.cls-5,.cls-6,.cls-7,.cls-8{fill-rule:evenodd;}.cls-2{fill:red;}.cls-3{fill:#cdffff;}.cls-4{fill:#872835;}.cls-5{fill:#ff5d5f;}.cls-6{fill:#350f2b;}.cls-7{fill:#00b6c9;}.cls-8{fill:#00d8d8;}</style></defs><polygon class="cls-1" points="41.13 6.73 75.43 26.81 41.13 46.52 41.13 6.73"/><polygon class="cls-2" points="75.43 26.81 41.13 46.49 41.13 85.73 75.43 65.76 75.43 26.81"/><polygon class="cls-3" points="41.13 6.73 6.83 27.13 41.13 46.52 41.13 6.73"/><polygon class="cls-4" points="6.83 27.13 41.13 46.52 41.13 85.73 6.83 65.76 6.83 27.13"/><polygon class="cls-5" points="64.37 33.19 64.37 59.73 41.11 72.87 41.11 65.82 58.28 56.13 58.28 43.87 41.13 53.53 41.13 46.52 64.37 33.19"/><polygon class="cls-6" points="17.81 33.34 41.13 46.52 41.13 53.53 17.82 40.32 17.81 33.34"/><polygon class="cls-6" points="30.52 59.84 41.13 65.85 41.13 72.87 30.53 66.86 30.52 59.84"/><polygon class="cls-7" points="51.74 33.19 41.13 27.21 41.13 20.2 51.74 26.17 51.74 33.19"/><polygon class="cls-8" points="17.81 33.34 24.09 36.86 41.13 27.21 41.13 20.2 17.81 33.34"/></svg>